<?xml version="1.0" encoding="UTF-8"?> <svg xmlns="http://www.w3.org/2000/svg" width="573" height="572" viewBox="0 0 573 572" fill="none"><g opacity="0.15"><path fill-rule="evenodd" clip-rule="evenodd" d="M14.9998 0.34256L14.9998 13.2031H0.710449V14.632H14.9998L14.9998 41.7818H0.710449V43.2108H14.9998L14.9998 70.3607H0.710449V71.7897H14.9998L14.9998 98.9398H0.710449V100.369H14.9998L14.9998 127.519H0.710449V128.948H14.9998L14.9998 156.098H0.710449V157.527H14.9998L14.9998 184.677H0.710449V186.106H14.9998L14.9998 213.256H0.710449V214.684H14.9998L14.9998 241.834H0.710449V243.263H14.9998L14.9998 270.413H0.710449V271.842H14.9998L14.9998 298.992H0.710449V300.421H14.9998L14.9998 327.571H0.710449V329H14.9998L14.9998 356.15H0.710449V357.579H14.9998L14.9998 384.729H0.710449V386.158H14.9998L14.9998 413.308H0.710449V414.737H14.9998L14.9998 441.887H0.710449V443.316H14.9998L14.9998 470.466H0.710449V471.895H14.9998L14.9998 499.045H0.710449V500.474H14.9998L14.9998 527.624H0.710449V529.053H14.9998L14.9998 556.203H0.710449V557.632H14.9998L14.9998 571.921H16.4287L16.4287 557.632H43.5786V571.921H45.0075V557.632H72.1579V571.921H73.5868V557.632H100.737V571.921H102.166V557.632H129.315V571.921H130.744V557.632H157.895V571.921H159.324V557.632H186.473V571.921H187.902V557.632H215.052V571.921H216.481V557.632H243.631V571.921H245.06V557.632H272.21V571.921H273.639V557.632H300.788V571.921H302.217V557.632H329.367V571.921H330.796V557.632H357.947V571.921H359.376V557.632H386.526V571.921H387.955V557.632H415.104V571.921H416.533V557.632H443.684V571.921H445.113V557.632H472.263V571.921H473.691V557.632H500.843V571.921H502.272V557.632H529.421V571.921H530.85V557.632H557.999V571.921H559.428V557.632H572.289V556.203H559.428L559.428 529.053H572.289V527.624H559.428V500.474H572.289V499.045H559.428V471.895H572.289V470.466H559.428V443.316H572.289V441.887H559.428V414.737H572.289V413.308H559.428V386.158H572.289V384.729H559.428V357.579H572.289V356.15H559.428V329H572.289V327.571H559.428V300.421H572.289V298.992H559.428V271.842H572.289V270.413H559.428V243.263H572.289V241.834H559.428V214.684H572.289V213.256H559.428V186.106H572.289V184.677H559.428V157.527H572.289V156.098H559.428V128.948H572.289V127.519H559.428V100.369H572.289V98.9398H559.428V71.7897H572.289V70.3607H559.428V43.2108H572.289V41.7818H559.428V14.632H572.289V13.2031H559.428V0.34256L557.999 0.34256V13.2031H530.85V0.34256L529.421 0.34256V13.2031H502.272V0.34256L500.843 0.34256V13.2031H473.692V0.34256L472.263 0.34256V13.2031H445.113V0.34256L443.684 0.34256V13.2031H416.533V0.34256L415.105 0.34256V13.2031H387.955V0.34256L386.526 0.34256V13.2031H359.376V0.34256L357.947 0.34256V13.2031H330.796V0.34256L329.367 0.34256V13.2031H302.217V0.34256L300.788 0.34256V13.2031H273.639V0.34256L272.21 0.34256V13.2031H245.06V0.34256L243.631 0.34256V13.2031H216.481V0.34256L215.052 0.34256V13.2031H187.902V0.34256L186.473 0.34256V13.2031H159.324V0.34256L157.895 0.34256V13.2031H130.744V0.34256L129.315 0.34256V13.2031H102.166V0.34256L100.737 0.34256V13.2031H73.5868V0.34256L72.1579 0.34256V13.2031H45.0075V0.34256L43.5786 0.34256V13.2031H16.4288L16.4288 0.34256L14.9998 0.34256ZM557.999 556.203V529.053H530.85L530.85 556.203H557.999ZM529.421 556.203V529.053H502.272L502.272 556.203H529.421ZM500.843 556.203L500.843 529.053H473.692L473.691 556.203H500.843ZM472.263 556.203L472.263 529.053H445.113L445.113 556.203H472.263ZM443.684 556.203L443.684 529.053H416.533L416.533 556.203H443.684ZM415.104 556.203L415.105 529.053H387.955L387.955 556.203H415.104ZM386.526 556.203L386.526 529.053H359.376L359.376 556.203H386.526ZM357.947 556.203L357.947 529.053H330.796L330.796 556.203H357.947ZM329.367 556.203L329.367 529.053H302.217L302.217 556.203H329.367ZM300.788 556.203L300.788 529.053H273.639L273.639 556.203H300.788ZM272.21 556.203L272.21 529.053H245.06L245.06 556.203H272.21ZM243.631 556.203L243.631 529.053H216.481L216.481 556.203H243.631ZM215.052 556.203L215.052 529.053H187.902L187.902 556.203H215.052ZM186.473 556.203L186.473 529.053H159.324L159.324 556.203H186.473ZM157.895 556.203L157.895 529.053H130.744L130.744 556.203H157.895ZM129.315 556.203L129.315 529.053H102.166L102.166 556.203H129.315ZM100.737 556.203L100.737 529.053H73.5868L73.5868 556.203H100.737ZM72.1579 556.203L72.1579 529.053H45.0075L45.0075 556.203H72.1579ZM43.5786 556.203L43.5786 529.053H16.4287L16.4287 556.203H43.5786ZM43.5786 527.624H16.4287L16.4288 500.474H43.5786V527.624ZM72.1579 527.624H45.0075V500.474H72.1579V527.624ZM100.737 527.624H73.5868V500.474H100.737V527.624ZM129.315 527.624H102.166V500.474H129.315V527.624ZM157.895 527.624H130.744V500.474H157.895V527.624ZM186.473 527.624H159.324V500.474H186.473V527.624ZM215.052 527.624H187.902V500.474H215.052V527.624ZM243.631 527.624H216.481V500.474H243.631V527.624ZM272.21 527.624H245.06V500.474H272.21V527.624ZM300.788 527.624H273.639V500.474H300.788V527.624ZM329.367 527.624H302.217V500.474H329.367V527.624ZM357.947 527.624H330.796V500.474H357.947V527.624ZM386.526 527.624H359.376V500.474H386.526V527.624ZM415.105 527.624H387.955V500.474H415.105V527.624ZM443.684 527.624H416.533V500.474H443.684V527.624ZM472.263 527.624H445.113V500.474H472.263V527.624ZM500.843 527.624H473.692V500.474H500.843V527.624ZM529.421 527.624H502.272V500.474H529.421V527.624ZM557.999 527.624H530.85V500.474H557.999V527.624ZM557.999 499.045V471.895H530.85V499.045H557.999ZM529.421 499.045V471.895H502.272V499.045H529.421ZM500.843 499.045V471.895H473.692V499.045H500.843ZM472.263 499.045V471.895H445.113V499.045H472.263ZM443.684 499.045V471.895H416.533V499.045H443.684ZM415.105 499.045V471.895H387.955V499.045H415.105ZM386.526 499.045V471.895H359.376V499.045H386.526ZM357.947 499.045V471.895H330.796V499.045H357.947ZM329.367 499.045V471.895H302.217V499.045H329.367ZM300.788 499.045V471.895H273.639V499.045H300.788ZM272.21 499.045V471.895H245.06V499.045H272.21ZM243.631 499.045L243.631 471.895H216.481V499.045H243.631ZM215.052 499.045L215.052 471.895H187.902V499.045H215.052ZM186.473 499.045L186.473 471.895H159.324V499.045H186.473ZM157.895 499.045L157.895 471.895H130.744V499.045H157.895ZM129.315 499.045L129.315 471.895H102.166L102.166 499.045H129.315ZM100.737 499.045L100.737 471.895H73.5868L73.5868 499.045H100.737ZM72.1579 499.045L72.1579 471.895H45.0075L45.0075 499.045H72.1579ZM43.5786 499.045L43.5786 471.895H16.4288L16.4288 499.045H43.5786ZM43.5786 470.466H16.4288L16.4288 443.316H43.5786V470.466ZM72.1579 470.466H45.0075V443.316H72.1579V470.466ZM100.737 470.466H73.5868V443.316H100.737V470.466ZM129.315 470.466H102.166V443.316H129.315V470.466ZM157.895 470.466H130.744V443.316H157.895V470.466ZM186.473 470.466H159.324V443.316H186.473V470.466ZM215.052 470.466H187.902V443.316H215.052V470.466ZM243.631 470.466H216.481V443.316H243.631V470.466ZM272.21 470.466H245.06V443.316H272.21V470.466ZM300.788 470.466H273.639V443.316H300.788V470.466ZM329.367 470.466H302.217V443.316H329.367V470.466ZM357.947 470.466H330.796V443.316H357.947V470.466ZM386.526 470.466H359.376V443.316H386.526V470.466ZM415.105 470.466H387.955V443.316H415.105V470.466ZM443.684 470.466H416.533V443.316H443.684V470.466ZM472.263 470.466H445.113V443.316H472.263V470.466ZM500.843 470.466H473.692V443.316H500.843V470.466ZM529.421 470.466H502.272V443.316H529.421V470.466ZM557.999 470.466H530.85V443.316H557.999V470.466ZM557.999 441.887V414.737H530.85V441.887H557.999ZM529.421 441.887V414.737H502.272V441.887H529.421ZM500.843 441.887V414.737H473.692V441.887H500.843ZM472.263 441.887V414.737H445.113V441.887H472.263ZM443.684 441.887V414.737H416.533V441.887H443.684ZM415.105 441.887V414.737H387.955V441.887H415.105ZM386.526 441.887V414.737H359.376V441.887H386.526ZM357.947 441.887V414.737H330.796V441.887H357.947ZM329.367 441.887V414.737H302.217V441.887H329.367ZM300.788 441.887V414.737H273.639V441.887H300.788ZM272.21 441.887V414.737H245.06V441.887H272.21ZM243.631 441.887V414.737H216.481V441.887H243.631ZM215.052 441.887V414.737H187.902V441.887H215.052ZM186.473 441.887V414.737H159.324V441.887H186.473ZM157.895 441.887V414.737H130.744V441.887H157.895ZM129.315 441.887V414.737H102.166L102.166 441.887H129.315ZM100.737 441.887L100.737 414.737H73.5868L73.5868 441.887H100.737ZM72.1579 441.887L72.1579 414.737H45.0075L45.0075 441.887H72.1579ZM43.5786 441.887L43.5786 414.737H16.4288L16.4288 441.887H43.5786ZM43.5786 413.308H16.4288L16.4288 386.158H43.5786V413.308ZM72.1579 413.308H45.0075V386.158H72.1579V413.308ZM100.737 413.308H73.5868V386.158H100.737V413.308ZM129.315 413.308H102.166V386.158H129.315V413.308ZM157.895 413.308H130.744V386.158H157.895V413.308ZM186.473 413.308H159.324V386.158H186.473V413.308ZM215.052 413.308H187.902V386.158H215.052V413.308ZM243.631 413.308H216.481V386.158H243.631V413.308ZM272.21 413.308H245.06V386.158H272.21V413.308ZM300.788 413.308H273.639V386.158H300.788V413.308ZM329.367 413.308H302.217V386.158H329.367V413.308ZM357.947 413.308H330.796V386.158H357.947V413.308ZM386.526 413.308H359.376V386.158H386.526V413.308ZM415.105 413.308H387.955V386.158H415.105V413.308ZM443.684 413.308H416.533V386.158H443.684V413.308ZM472.263 413.308H445.113V386.158H472.263V413.308ZM500.843 413.308H473.692V386.158H500.843V413.308ZM529.421 413.308H502.272V386.158H529.421V413.308ZM557.999 413.308H530.85V386.158H557.999V413.308ZM557.999 384.729V357.579H530.85V384.729H557.999ZM529.421 384.729V357.579H502.272V384.729H529.421ZM500.843 384.729V357.579H473.692V384.729H500.843ZM472.263 384.729V357.579H445.113V384.729H472.263ZM443.684 384.729V357.579H416.533V384.729H443.684ZM415.105 384.729V357.579H387.955V384.729H415.105ZM386.526 384.729V357.579H359.376V384.729H386.526ZM357.947 384.729V357.579H330.796V384.729H357.947ZM329.367 384.729V357.579H302.217V384.729H329.367ZM300.788 384.729V357.579H273.639V384.729H300.788ZM272.21 384.729V357.579H245.06V384.729H272.21ZM243.631 384.729V357.579H216.481V384.729H243.631ZM215.052 384.729V357.579H187.902V384.729H215.052ZM186.473 384.729V357.579H159.324V384.729H186.473ZM157.895 384.729V357.579H130.744V384.729H157.895ZM129.315 384.729V357.579H102.166L102.166 384.729H129.315ZM100.737 384.729V357.579H73.5868L73.5868 384.729H100.737ZM72.1579 384.729V357.579H45.0075L45.0075 384.729H72.1579ZM43.5786 384.729L43.5786 357.579H16.4288L16.4288 384.729H43.5786ZM43.5786 356.15H16.4288L16.4288 329H43.5786V356.15ZM72.1579 356.15H45.0075V329H72.1579V356.15ZM100.737 356.15H73.5868V329H100.737V356.15ZM129.315 356.15H102.166V329H129.315V356.15ZM157.895 356.15H130.744V329H157.895V356.15ZM186.473 356.15H159.324V329H186.473V356.15ZM215.052 356.15H187.902V329H215.052V356.15ZM243.631 356.15H216.481V329H243.631V356.15ZM272.21 356.15H245.06V329H272.21V356.15ZM300.788 356.15H273.639V329H300.788V356.15ZM329.367 356.15H302.217V329H329.367V356.15ZM357.947 356.15H330.796V329H357.947V356.15ZM386.526 356.15H359.376V329H386.526V356.15ZM415.105 356.15H387.955V329H415.105V356.15ZM443.684 356.15H416.533V329H443.684V356.15ZM472.263 356.15H445.113V329H472.263V356.15ZM500.843 356.15H473.692V329H500.843V356.15ZM529.421 356.15H502.272V329H529.421V356.15ZM557.999 356.15H530.85V329H557.999V356.15ZM557.999 327.571V300.421H530.85V327.571H557.999ZM529.421 327.571V300.421H502.272V327.571H529.421ZM500.843 327.571V300.421H473.692V327.571H500.843ZM472.263 327.571V300.421H445.113V327.571H472.263ZM443.684 327.571V300.421H416.533V327.571H443.684ZM415.105 327.571V300.421H387.955V327.571H415.105ZM386.526 327.571V300.421H359.376V327.571H386.526ZM357.947 327.571V300.421H330.796V327.571H357.947ZM329.367 327.571V300.421H302.217V327.571H329.367ZM300.788 327.571V300.421H273.639V327.571H300.788ZM272.21 327.571V300.421H245.06V327.571H272.21ZM243.631 327.571V300.421H216.481V327.571H243.631ZM215.052 327.571V300.421H187.902V327.571H215.052ZM186.473 327.571V300.421H159.324V327.571H186.473ZM157.895 327.571V300.421H130.744V327.571H157.895ZM129.315 327.571V300.421H102.166V327.571H129.315ZM100.737 327.571V300.421H73.5868V327.571H100.737ZM72.1579 327.571V300.421H45.0075V327.571H72.1579ZM43.5786 327.571V300.421H16.4288L16.4288 327.571H43.5786ZM43.5786 298.992H16.4288L16.4288 271.842H43.5786V298.992ZM72.1579 298.992H45.0075V271.842H72.1579V298.992ZM100.737 298.992H73.5868V271.842H100.737V298.992ZM129.315 298.992H102.166V271.842H129.315V298.992ZM157.895 298.992H130.744V271.842H157.895V298.992ZM186.473 298.992H159.324V271.842H186.473V298.992ZM215.052 298.992H187.902V271.842H215.052V298.992ZM243.631 298.992H216.481V271.842H243.631V298.992ZM272.21 298.992H245.06V271.842H272.21V298.992ZM300.788 298.992H273.639V271.842H300.788V298.992ZM329.367 298.992H302.217V271.842H329.367V298.992ZM357.947 298.992H330.796V271.842H357.947V298.992ZM386.526 298.992H359.376V271.842H386.526V298.992ZM415.105 298.992H387.955V271.842H415.105V298.992ZM443.684 298.992H416.533V271.842H443.684V298.992ZM472.263 298.992H445.113V271.842H472.263V298.992ZM500.843 298.992H473.692V271.842H500.843V298.992ZM529.421 298.992H502.272V271.842H529.421V298.992ZM557.999 298.992H530.85V271.842H557.999V298.992ZM557.999 270.413V243.263H530.85V270.413H557.999ZM529.421 270.413V243.263H502.272V270.413H529.421ZM500.843 270.413V243.263H473.692V270.413H500.843ZM472.263 270.413V243.263H445.113V270.413H472.263ZM443.684 270.413V243.263H416.533V270.413H443.684ZM415.105 270.413V243.263H387.955V270.413H415.105ZM386.526 270.413V243.263H359.376V270.413H386.526ZM357.947 270.413V243.263H330.796V270.413H357.947ZM329.367 270.413V243.263H302.217V270.413H329.367ZM300.788 270.413V243.263H273.639V270.413H300.788ZM272.21 270.413V243.263H245.06V270.413H272.21ZM243.631 270.413V243.263H216.481V270.413H243.631ZM215.052 270.413V243.263H187.902V270.413H215.052ZM186.473 270.413V243.263H159.324V270.413H186.473ZM157.895 270.413V243.263H130.744V270.413H157.895ZM129.315 270.413V243.263H102.166V270.413H129.315ZM100.737 270.413V243.263H73.5868V270.413H100.737ZM72.1579 270.413V243.263H45.0075V270.413H72.1579ZM43.5786 270.413V243.263H16.4288L16.4288 270.413H43.5786ZM43.5786 241.834H16.4288L16.4288 214.684H43.5786V241.834ZM72.1579 241.834H45.0075V214.684H72.1579V241.834ZM100.737 241.834H73.5868V214.684H100.737V241.834ZM129.315 241.834H102.166V214.684H129.315V241.834ZM157.895 241.834H130.744V214.684H157.895V241.834ZM186.473 241.834H159.324V214.684H186.473V241.834ZM215.052 241.834H187.902V214.684H215.052V241.834ZM243.631 241.834H216.481V214.684H243.631V241.834ZM272.21 241.834H245.06V214.684H272.21V241.834ZM300.788 241.834H273.639V214.684H300.788V241.834ZM329.367 241.834H302.217V214.684H329.367V241.834ZM357.947 241.834H330.796V214.684H357.947V241.834ZM386.526 241.834H359.376V214.684H386.526V241.834ZM415.105 241.834H387.955V214.684H415.105V241.834ZM443.684 241.834H416.533V214.684H443.684V241.834ZM472.263 241.834H445.113V214.684H472.263V241.834ZM500.843 241.834H473.692V214.684H500.843V241.834ZM529.421 241.834H502.272V214.684H529.421V241.834ZM557.999 241.834H530.85V214.684H557.999V241.834ZM557.999 213.256V186.106H530.85V213.256H557.999ZM529.421 213.256V186.106H502.272V213.256H529.421ZM500.843 213.256V186.106H473.692V213.256H500.843ZM472.263 213.256V186.106H445.113V213.256H472.263ZM443.684 213.256V186.106H416.533V213.256H443.684ZM415.105 213.256V186.106H387.955V213.256H415.105ZM386.526 213.256V186.106H359.376V213.256H386.526ZM357.947 213.256V186.106H330.796V213.256H357.947ZM329.367 213.256V186.106H302.217V213.256H329.367ZM300.788 213.256V186.106H273.639V213.256H300.788ZM272.21 213.256V186.106H245.06V213.256H272.21ZM243.631 213.256V186.106H216.481V213.256H243.631ZM215.052 213.256V186.106H187.902V213.256H215.052ZM186.473 213.256V186.106H159.324V213.256H186.473ZM157.895 213.256V186.106H130.744V213.256H157.895ZM129.315 213.256V186.106H102.166V213.256H129.315ZM100.737 213.256V186.106H73.5868V213.256H100.737ZM72.1579 213.256V186.106H45.0075V213.256H72.1579ZM43.5786 213.256V186.106H16.4288L16.4288 213.256H43.5786ZM43.5786 184.677H16.4288L16.4288 157.527H43.5786V184.677ZM72.1579 184.677H45.0075V157.527H72.1579V184.677ZM100.737 184.677H73.5868V157.527H100.737V184.677ZM129.315 184.677H102.166V157.527H129.315V184.677ZM157.895 184.677H130.744V157.527H157.895V184.677ZM186.473 184.677H159.324V157.527H186.473V184.677ZM215.052 184.677H187.902V157.527H215.052V184.677ZM243.631 184.677H216.481V157.527H243.631V184.677ZM272.21 184.677H245.06V157.527H272.21V184.677ZM300.788 184.677H273.639V157.527H300.788V184.677ZM329.367 184.677H302.217V157.527H329.367V184.677ZM357.947 184.677H330.796V157.527H357.947V184.677ZM386.526 184.677H359.376V157.527H386.526V184.677ZM415.105 184.677H387.955V157.527H415.105V184.677ZM443.684 184.677H416.533V157.527H443.684V184.677ZM472.263 184.677H445.113V157.527H472.263V184.677ZM500.843 184.677H473.692V157.527H500.843V184.677ZM529.421 184.677H502.272V157.527H529.421V184.677ZM557.999 184.677H530.85V157.527H557.999V184.677ZM557.999 156.098V128.948H530.85V156.098H557.999ZM529.421 156.098V128.948H502.272V156.098H529.421ZM500.843 156.098V128.948H473.692V156.098H500.843ZM472.263 156.098V128.948H445.113V156.098H472.263ZM443.684 156.098V128.948H416.533V156.098H443.684ZM415.105 156.098V128.948H387.955V156.098H415.105ZM386.526 156.098V128.948H359.376V156.098H386.526ZM357.947 156.098V128.948H330.796V156.098H357.947ZM329.367 156.098V128.948H302.217V156.098H329.367ZM300.788 156.098V128.948H273.639V156.098H300.788ZM272.21 156.098V128.948H245.06V156.098H272.21ZM243.631 156.098V128.948H216.481V156.098H243.631ZM215.052 156.098V128.948H187.902V156.098H215.052ZM186.473 156.098V128.948H159.324V156.098H186.473ZM157.895 156.098V128.948H130.744V156.098H157.895ZM129.315 156.098V128.948H102.166V156.098H129.315ZM100.737 156.098V128.948H73.5868V156.098H100.737ZM72.1579 156.098V128.948H45.0075V156.098H72.1579ZM43.5786 156.098V128.948H16.4288L16.4288 156.098H43.5786ZM43.5786 127.519H16.4288L16.4288 100.369H43.5786V127.519ZM72.1579 127.519H45.0075V100.369H72.1579V127.519ZM100.737 127.519H73.5868V100.369H100.737V127.519ZM129.315 127.519H102.166V100.369H129.315V127.519ZM157.895 127.519H130.744V100.369H157.895V127.519ZM186.473 127.519H159.324V100.369H186.473V127.519ZM215.052 127.519H187.902V100.369H215.052V127.519ZM243.631 127.519H216.481V100.369H243.631V127.519ZM272.21 127.519H245.06V100.369H272.21V127.519ZM300.788 127.519H273.639V100.369H300.788V127.519ZM329.367 127.519H302.217V100.369H329.367V127.519ZM357.947 127.519H330.796V100.369H357.947V127.519ZM386.526 127.519H359.376V100.369H386.526V127.519ZM415.105 127.519H387.955V100.369H415.105V127.519ZM443.684 127.519H416.533V100.369H443.684V127.519ZM472.263 127.519H445.113V100.369H472.263V127.519ZM500.843 127.519H473.692V100.369H500.843V127.519ZM529.421 127.519H502.272V100.369H529.421V127.519ZM557.999 127.519H530.85V100.369H557.999V127.519ZM557.999 98.9398V71.7897H530.85V98.9398H557.999ZM529.421 98.9398V71.7897H502.272V98.9398H529.421ZM500.843 98.9398V71.7897H473.692V98.9398H500.843ZM472.263 98.9398V71.7897H445.113V98.9398H472.263ZM443.684 98.9398V71.7897H416.533V98.9398H443.684ZM415.105 98.9398V71.7897H387.955V98.9398H415.105ZM386.526 98.9398V71.7897H359.376V98.9398H386.526ZM357.947 98.9398V71.7897H330.796V98.9398H357.947ZM329.367 98.9398V71.7897H302.217V98.9398H329.367ZM300.788 98.9398V71.7897H273.639V98.9398H300.788ZM272.21 98.9398V71.7897H245.06V98.9398H272.21ZM243.631 98.9398V71.7897H216.481V98.9398H243.631ZM215.052 98.9398V71.7897H187.902V98.9398H215.052ZM186.473 98.9398V71.7897H159.324V98.9398H186.473ZM157.895 98.9398V71.7897H130.744V98.9398H157.895ZM129.315 98.9398V71.7897H102.166V98.9398H129.315ZM100.737 98.9398V71.7897H73.5868V98.9398H100.737ZM72.1579 98.9398V71.7897H45.0075V98.9398H72.1579ZM43.5786 98.9398V71.7897H16.4288L16.4288 98.9398H43.5786ZM43.5786 70.3607H16.4288L16.4288 43.2108H43.5786V70.3607ZM72.1579 70.3607H45.0075V43.2108H72.1579V70.3607ZM100.737 70.3607H73.5868V43.2108H100.737V70.3607ZM129.315 70.3607H102.166V43.2108H129.315V70.3607ZM157.895 70.3607H130.744V43.2108H157.895V70.3607ZM186.473 70.3607H159.324V43.2108H186.473V70.3607ZM215.052 70.3607H187.902V43.2108H215.052V70.3607ZM243.631 70.3607H216.481V43.2108H243.631V70.3607ZM272.21 70.3607H245.06V43.2108H272.21V70.3607ZM300.788 70.3607H273.639V43.2108H300.788V70.3607ZM329.367 70.3607H302.217V43.2108H329.367V70.3607ZM357.947 70.3607H330.796V43.2108H357.947V70.3607ZM386.526 70.3607H359.376V43.2108H386.526V70.3607ZM415.105 70.3607H387.955V43.2108H415.105V70.3607ZM443.684 70.3607H416.533V43.2108H443.684V70.3607ZM472.263 70.3607H445.113V43.2108H472.263V70.3607ZM500.843 70.3607H473.692V43.2108H500.843V70.3607ZM529.421 70.3607H502.272V43.2108H529.421V70.3607ZM557.999 70.3607H530.85V43.2108H557.999V70.3607ZM557.999 41.7818V14.632H530.85V41.7818H557.999ZM529.421 41.7818V14.632H502.272V41.7818H529.421ZM500.843 41.7818V14.632H473.692V41.7818H500.843ZM472.263 41.7818V14.632H445.113V41.7818H472.263ZM443.684 41.7818V14.632H416.533V41.7818H443.684ZM415.105 41.7818V14.632H387.955V41.7818H415.105ZM386.526 41.7818V14.632H359.376V41.7818H386.526ZM357.947 41.7818V14.632H330.796V41.7818H357.947ZM329.367 41.7818V14.632H302.217V41.7818H329.367ZM300.788 41.7818V14.632H273.639V41.7818H300.788ZM272.21 41.7818V14.632H245.06V41.7818H272.21ZM243.631 41.7818V14.632H216.481V41.7818H243.631ZM215.052 41.7818V14.632H187.902V41.7818H215.052ZM186.473 41.7818V14.632H159.324V41.7818H186.473ZM157.895 41.7818V14.632H130.744V41.7818H157.895ZM129.315 41.7818V14.632H102.166V41.7818H129.315ZM100.737 41.7818V14.632H73.5868V41.7818H100.737ZM72.1579 41.7818V14.632H45.0075V41.7818H72.1579ZM43.5786 41.7818V14.632H16.4288L16.4288 41.7818H43.5786Z" fill="url(#paint0_radial_321_7209)"></path></g><defs><radialGradient id="paint0_radial_321_7209" cx="0" cy="0" r="1" gradientUnits="userSpaceOnUse" gradientTransform="translate(286.5 286.132) rotate(90) scale(405.821)"><stop stop-color="white"></stop><stop offset="1" stop-opacity="0"></stop></radialGradient></defs></svg> 